<?xml version="1.0" encoding="UTF-8"?>
<svg version="1.1" xmlns="http://www.w3.org/2000/svg" width="1187" height="1187">
<path d="M0 0 C391.71 0 783.42 0 1187 0 C1187 391.71 1187 783.42 1187 1187 C795.29 1187 403.58 1187 0 1187 C0 795.29 0 403.58 0 0 Z " fill="#FEFEFE" transform="translate(0,0)"/>
<path d="M0 0 C0 0.66 0 1.32 0 2 C0.59981689 2.26627197 1.19963379 2.53254395 1.81762695 2.80688477 C4.06130816 4.03351751 5.2722722 5.1564559 6.91796875 7.08984375 C7.44527588 7.70351807 7.97258301 8.31719238 8.51586914 8.94946289 C9.34332642 9.93354126 9.34332642 9.93354126 10.1875 10.9375 C10.76556396 11.61482178 11.34362793 12.29214355 11.93920898 12.98999023 C15.92099362 17.67147955 19.82369395 22.41531382 23.69140625 27.19140625 C26.41344091 30.5029848 29.20139731 33.75313059 32 37 C36.29977994 41.98936093 40.50485562 47.04221344 44.65625 52.15625 C47.39302049 55.47686486 50.1910295 58.74046782 53 62 C57.29972713 66.98940767 61.50485409 72.04221156 65.65625 77.15625 C68.89599807 81.08714432 72.22375145 84.93974196 75.54980469 88.79760742 C79.41421167 93.28982621 83.17895881 97.8537247 86.88671875 102.4765625 C89.00430875 105.00514502 91.26172138 107.32628062 93.5625 109.6875 C95.999517 112.42610394 97.53749467 114.28482059 97.75 118 C97.00816358 124.66328066 93.34480708 130.47147865 90 136.12890625 C88.39754183 139.12725571 87.22966239 142.28379877 86 145.44921875 C83.71587809 151.27551408 81.17583293 156.75790609 77.98828125 162.1484375 C76.87331957 164.23733804 76.03385974 166.35116009 75.1875 168.5625 C73.53884808 172.84378186 71.58697146 176.91901917 69.5 181 C67.0297328 185.83570756 64.84114412 190.69614807 62.89453125 195.765625 C61.21609107 199.95806073 59.08241338 203.91973679 57 207.921875 C55.13947929 211.55570451 53.48868299 215.19688017 52 219 C49.98163551 224.15629052 47.55317939 229.01498336 45 233.921875 C42.72116471 238.37272518 40.82035915 242.88587287 39.01171875 247.546875 C37.80226248 250.47945622 36.37111921 253.24404032 34.83203125 256.015625 C33.65076398 258.83291972 33.08019 260.91841268 33 264 C34.5530763 266.37224792 35.95676842 268.1576171 37.875 270.1875 C38.90587736 271.33770933 39.93581291 272.4887634 40.96484375 273.640625 C41.48159668 274.20845703 41.99834961 274.77628906 42.53076172 275.36132812 C44.58509989 277.65257402 46.51062461 280.03866434 48.4375 282.4375 C52.39508188 287.30129025 56.46542446 292.05881231 60.55834961 296.80834961 C64.33334391 301.1980035 68.00728461 305.66114771 71.65625 310.15625 C74.39302383 313.47686891 77.19115891 316.74035181 80 320 C96.86943306 339.58987706 96.86943306 339.58987706 97.3125 344.375 C96.96885975 348.36122695 96.14742792 349.70216426 94 353 C93.32640432 354.57172326 92.6835802 356.15679426 92.0625 357.75 C89.43323633 364.47811578 86.68152111 370.90195843 83 377.12890625 C81.39754183 380.12725571 80.22966239 383.28379877 79 386.44921875 C76.71878402 392.26810171 74.18309968 397.74499156 71 403.12890625 C69.39754183 406.12725571 68.22966239 409.28379877 67 412.44921875 C64.71878402 418.26810171 62.18309968 423.74499156 59 429.12890625 C57.39754183 432.12725571 56.22966239 435.28379877 55 438.44921875 C52.71878402 444.26810171 50.18309968 449.74499156 47 455.12890625 C45.39960457 458.12339614 44.23239519 461.27479825 43.0078125 464.4375 C39.30987534 473.84000689 39.30987534 473.84000689 36.8203125 477.9453125 C35.66863148 480.82999924 35.93537095 482.07227012 37 485 C38.77306497 487.3314653 40.54010875 489.46458395 42.5 491.625 C43.60520222 492.87669057 44.70936041 494.12930371 45.8125 495.3828125 C46.35777344 495.99801758 46.90304687 496.61322266 47.46484375 497.24707031 C49.53888369 499.61532839 51.52294512 502.05048715 53.5 504.5 C56.93207857 508.72792288 60.44546839 512.87531796 64 517 C67.55453161 521.12468204 71.06792143 525.27207712 74.5 529.5 C78.49932147 534.42617151 82.60917117 539.24927593 86.75195312 544.0546875 C87.70606203 545.16160792 88.65795399 546.27044381 89.60742188 547.38134766 C90.55143304 548.47861169 91.50628271 549.5666265 92.47070312 550.64599609 C96 554.67291886 96 554.67291886 96 558 C96.598125 558.268125 97.19625 558.53625 97.8125 558.8125 C100.14126747 560.07668805 101.49243283 560.8140276 103 563 C103.57785815 568.20072333 102.79293393 570.71085146 100 575 C99.32640432 576.57172326 98.6835802 578.15679426 98.0625 579.75 C95.43323633 586.47811578 92.68152111 592.90195843 89 599.12890625 C87.39754183 602.12725571 86.22966239 605.28379877 85 608.44921875 C82.71587809 614.27551408 80.17583293 619.75790609 76.98828125 625.1484375 C75.87331957 627.23733804 75.03385974 629.35116009 74.1875 631.5625 C72.53884808 635.84378186 70.58697146 639.91901917 68.5 644 C66.0297328 648.83570756 63.84114412 653.69614807 61.89453125 658.765625 C60.48316609 662.29095631 58.74814184 665.63245545 57 669 C52.076213 677.55879137 52.076213 677.55879137 51 687 C52.72015665 689.60831917 54.81655534 691.83816487 56.9375 694.125 C58.14313017 695.46767068 59.34755258 696.81142681 60.55078125 698.15625 C61.1432666 698.81238281 61.73575195 699.46851563 62.34619141 700.14453125 C64.51531144 702.57814688 66.57733736 705.08873298 68.625 707.625 C71.8313918 711.58033003 75.08210467 715.49178169 78.375 719.375 C78.83519531 719.91769531 79.29539062 720.46039062 79.76953125 721.01953125 C81.17900132 722.68027174 82.58933242 724.34027662 84 726 C85.8761364 728.20737152 87.75127574 730.41558049 89.625 732.625 C90.08374512 733.16552002 90.54249023 733.70604004 91.01513672 734.26293945 C94.62952734 738.53349489 98.14568166 742.8788193 101.65234375 747.23828125 C103.38930611 749.28159638 105.13079247 751.19568524 107.00390625 753.10546875 C107.51179688 753.63003662 108.0196875 754.15460449 108.54296875 754.69506836 C109.52922314 755.70429943 110.52993464 756.6996752 111.546875 757.67797852 C114.00804219 760.20569948 114.97086457 761.81768933 115.53125 765.32421875 C114.87551517 769.86132517 113.3940988 773.4463431 111.4375 777.5625 C111.07688477 778.34753906 110.71626953 779.13257813 110.34472656 779.94140625 C107.54301155 785.99173559 104.55278092 791.94170458 101.52734375 797.8828125 C99.78137485 801.44619659 98.31594604 805.06389799 96.89453125 808.765625 C95.21609107 812.95806073 93.08241338 816.91973679 91 820.921875 C89.13947929 824.55570451 87.48868299 828.19688017 86 832 C83.98163551 837.15629052 81.55317939 842.01498336 79 846.921875 C77.13947929 850.55570451 75.48868299 854.19688017 74 858 C71.98163551 863.15629052 69.55317939 868.01498336 67 872.921875 C65.13947929 876.55570451 63.48868299 880.19688017 62 884 C59.98163551 889.15629052 57.55317939 894.01498336 55 898.921875 C53.13947929 902.55570451 51.48868299 906.19688017 50 910 C47.98163551 915.15629052 45.55317939 920.01498336 43 924.921875 C41.13947929 928.55570451 39.48868299 932.19688017 38 936 C35.98163551 941.15629052 33.55317939 946.01498336 31 950.921875 C28.31976306 956.15671278 26.1409719 961.52561616 24 967 C22.28340752 971.29148121 20.31370465 975.28402852 18.0625 979.3125 C15.65968395 983.64943464 13.69367651 987.98229111 11.92578125 992.609375 C10.74689468 995.65358842 9.41281638 998.61214889 8.05078125 1001.578125 C7.27971201 1003.35531061 6.57828749 1005.16313486 5.91796875 1006.984375 C3.37295677 1013.8278186 0.78453944 1019.59626991 -6 1023 C-9.87990968 1023.88730889 -13.13086872 1023.95992146 -17 1023 C-19.76923001 1021.24066193 -21.0004886 1019.70204244 -23 1017 C-23 1016.34 -23 1015.68 -23 1015 C-23.66 1015 -24.32 1015 -25 1015 C-26.01451735 1013.34213018 -27.01060195 1011.67298215 -28 1010 C-29.80336086 1007.79589228 -31.62395908 1005.63976552 -33.5 1003.5 C-34.57847146 1002.25550849 -35.65658847 1001.01070974 -36.734375 999.765625 C-37.27900391 999.13849609 -37.82363281 998.51136719 -38.38476562 997.86523438 C-40.85817927 995.00899492 -43.30780264 992.13294641 -45.75 989.25 C-46.43763428 988.43861572 -46.43763428 988.43861572 -47.13916016 987.61083984 C-49.77296847 984.49038055 -52.34623733 981.33092088 -54.875 978.125 C-58.81529751 973.14905962 -62.97771339 968.38145124 -67.1496582 963.6003418 C-71.09028507 959.07549575 -74.91509062 954.47182387 -78.69140625 949.80859375 C-81.41344091 946.4970152 -84.20139731 943.24686941 -87 940 C-91.29977994 935.01063907 -95.50485562 929.95778656 -99.65625 924.84375 C-102.39302049 921.52313514 -105.1910295 918.25953218 -108 915 C-112.29972713 910.01059233 -116.50485409 904.95778844 -120.65625 899.84375 C-123.39302049 896.52313514 -126.1910295 893.25953218 -129 890 C-133.29972713 885.01059233 -137.50485409 879.95778844 -141.65625 874.84375 C-144.39302049 871.52313514 -147.1910295 868.25953218 -150 865 C-154.29972713 860.01059233 -158.50485409 854.95778844 -162.65625 849.84375 C-165.39302049 846.52313514 -168.1910295 843.25953218 -171 840 C-175.29972713 835.01059233 -179.50485409 829.95778844 -183.65625 824.84375 C-186.39302049 821.52313514 -189.1910295 818.25953218 -192 815 C-196.29972713 810.01059233 -200.50485409 804.95778844 -204.65625 799.84375 C-207.39302049 796.52313514 -210.1910295 793.25953218 -213 790 C-217.29972713 785.01059233 -221.50485409 779.95778844 -225.65625 774.84375 C-228.39302049 771.52313514 -231.1910295 768.25953218 -234 765 C-238.29972713 760.01059233 -242.50485409 754.95778844 -246.65625 749.84375 C-249.39302049 746.52313514 -252.1910295 743.25953218 -255 740 C-259.29972713 735.01059233 -263.50485409 729.95778844 -267.65625 724.84375 C-270.39302138 721.52313406 -273.19106385 718.25956291 -276 715 C-280.32053573 709.98546763 -284.55288114 704.91143513 -288.7265625 699.7734375 C-291.72013655 696.1214829 -294.77232686 692.52120112 -297.83081055 688.92358398 C-300.15264765 686.19040581 -302.46285885 683.44914465 -304.74609375 680.68359375 C-305.18832275 680.14855225 -305.63055176 679.61351074 -306.08618164 679.06225586 C-307.29643373 677.595235 -308.50378722 676.12582426 -309.7109375 674.65625 C-311.99555106 671.92721918 -311.99555106 671.92721918 -314.7265625 669.34375 C-318.34682953 665.61151595 -318.27490268 662.16922416 -318.2265625 657.23046875 C-317.91989605 654.2113904 -316.93858746 652.31139273 -315 650 C-314.34 650 -313.68 650 -313 650 C-312.7525 648.824375 -312.505 647.64875 -312.25 646.4375 C-311.33813146 642.76415724 -309.95965959 639.90857786 -308 636.6953125 C-305.8547719 633.05848049 -304.4213517 629.04341485 -302.84375 625.13671875 C-299.09021512 615.94742451 -299.09021512 615.94742451 -296.875 612.1875 C-294.41022808 607.99738774 -292.65858074 603.63087731 -290.84375 599.13671875 C-287.09021512 589.94742451 -287.09021512 589.94742451 -284.875 586.1875 C-282.41022808 581.99738774 -280.65858074 577.63087731 -278.84375 573.13671875 C-275.09021512 563.94742451 -275.09021512 563.94742451 -272.875 560.1875 C-270.41022808 555.99738774 -268.65858074 551.63087731 -266.84375 547.13671875 C-263.09021512 537.94742451 -263.09021512 537.94742451 -260.875 534.1875 C-258.41022808 529.99738774 -256.65858074 525.63087731 -254.84375 521.13671875 C-251.09021512 511.94742451 -251.09021512 511.94742451 -248.875 508.1875 C-246.41022808 503.99738774 -244.65858074 499.63087731 -242.84375 495.13671875 C-239.09021512 485.94742451 -239.09021512 485.94742451 -236.875 482.1875 C-234.41022808 477.99738774 -232.65858074 473.63087731 -230.84375 469.13671875 C-227.09021512 459.94742451 -227.09021512 459.94742451 -224.875 456.1875 C-222.41022808 451.99738774 -220.65858074 447.63087731 -218.84375 443.13671875 C-215.09021512 433.94742451 -215.09021512 433.94742451 -212.875 430.1875 C-210.41022808 425.99738774 -208.65858074 421.63087731 -206.84375 417.13671875 C-203.09021512 407.94742451 -203.09021512 407.94742451 -200.875 404.1875 C-198.41022808 399.99738774 -196.65858074 395.63087731 -194.84375 391.13671875 C-191.09021512 381.94742451 -191.09021512 381.94742451 -188.875 378.1875 C-186.41022808 373.99738774 -184.65858074 369.63087731 -182.84375 365.13671875 C-179.09021512 355.94742451 -179.09021512 355.94742451 -176.875 352.1875 C-174.41022808 347.99738774 -172.65858074 343.63087731 -170.84375 339.13671875 C-167.09021512 329.94742451 -167.09021512 329.94742451 -164.875 326.1875 C-163.29917407 323.50859591 -162.0291348 320.87854612 -160.84375 318.01171875 C-158.11097404 311.49607236 -155.08904806 305.11634976 -151.89453125 298.81640625 C-150.78984661 296.57326933 -149.8119836 294.28137944 -148.84375 291.9765625 C-146.07346142 285.486905 -143.08514753 279.10865747 -139.89453125 272.81640625 C-138.78984661 270.57326933 -137.8119836 268.28137944 -136.84375 265.9765625 C-134.07346142 259.486905 -131.08514753 253.10865747 -127.89453125 246.81640625 C-126.78984661 244.57326933 -125.8119836 242.28137944 -124.84375 239.9765625 C-122.07346142 233.486905 -119.08514753 227.10865747 -115.89453125 220.81640625 C-114.78984661 218.57326933 -113.8119836 216.28137944 -112.84375 213.9765625 C-110.07346142 207.486905 -107.08514753 201.10865747 -103.89453125 194.81640625 C-102.78984661 192.57326933 -101.8119836 190.28137944 -100.84375 187.9765625 C-98.07346142 181.486905 -95.08514753 175.10865747 -91.89453125 168.81640625 C-90.78984661 166.57326933 -89.8119836 164.28137944 -88.84375 161.9765625 C-86.07346142 155.486905 -83.08514753 149.10865747 -79.89453125 142.81640625 C-78.78984661 140.57326933 -77.8119836 138.28137944 -76.84375 135.9765625 C-74.07346142 129.486905 -71.08514753 123.10865747 -67.89453125 116.81640625 C-66.78984661 114.57326933 -65.8119836 112.28137944 -64.84375 109.9765625 C-62.07346142 103.486905 -59.08514753 97.10865747 -55.89453125 90.81640625 C-54.78984661 88.57326933 -53.8119836 86.28137944 -52.84375 83.9765625 C-50.07346142 77.486905 -47.08514753 71.10865747 -43.89453125 64.81640625 C-42.78984661 62.57326933 -41.8119836 60.28137944 -40.84375 57.9765625 C-38.07346142 51.486905 -35.08514753 45.10865747 -31.89453125 38.81640625 C-30.79057482 36.57474801 -29.81265788 34.28487156 -28.84765625 31.98046875 C-27.77228803 29.46797249 -26.63600453 26.98564574 -25.5 24.5 C-23.05933327 19.15099387 -20.69854488 13.79191948 -18.5625 8.3125 C-17.00560484 5.01188225 -15.91470131 3.16520669 -13 1 C-8.67794686 -0.1525475 -4.45471247 -0.08909425 0 0 Z " fill="#02024C" transform="translate(643,64)"/>
<path d="M0 0 C2.88988083 0.336183 3.92130283 0.91834195 5.97265625 3.046875 C6.66230469 3.93890625 7.35195313 4.8309375 8.0625 5.75 C8.84753906 6.74515625 9.63257813 7.7403125 10.44140625 8.765625 C10.85664551 9.29478516 11.27188477 9.82394531 11.69970703 10.36914062 C13.9032657 13.13289803 16.20463317 15.81245793 18.5 18.5 C21.85548386 22.44561815 25.17224504 26.41645366 28.4375 30.4375 C32.39508188 35.30129025 36.46542446 40.05881231 40.55834961 44.80834961 C44.32671265 49.19029252 47.99467825 53.64517942 51.63671875 58.1328125 C54.97852267 62.18716634 58.40473947 66.16716972 61.83984375 70.14257812 C62.7924512 71.24673676 63.74198925 72.35355322 64.68798828 73.46337891 C65.91089773 74.8956439 67.1482674 76.3155273 68.38671875 77.734375 C68.91910156 78.48203125 69.45148438 79.2296875 70 80 C69.27162167 84.18817541 67.22434974 87.40146377 65.0703125 91.0234375 C63.42921347 94.05408024 62.24646314 97.24054997 61 100.44921875 C58.71878402 106.26810171 56.18309968 111.74499156 53 117.12890625 C51.39754183 120.12725571 50.22966239 123.28379877 49 126.44921875 C46.71878402 132.26810171 44.18309968 137.74499156 41 143.12890625 C39.39887825 146.12475515 38.23160968 149.27826448 37.00390625 152.44140625 C35.12126458 157.23957859 33.2055683 162.04095151 30.5 166.4375 C28.63276285 169.62736347 27.37859684 172.94112862 26.03515625 176.37890625 C23.72948445 182.21704126 21.19721104 187.72112351 18 193.12890625 C16.39815135 196.12611525 15.23081699 199.28172822 14 202.4453125 C12.00419689 207.54396575 10.04807824 212.47552256 6.9375 217 C4.8384956 220.25007133 3.8439673 223.24694454 2.7109375 226.9140625 C1.82096805 229.52529156 0.43464552 231.64718135 -1 234 C-2.03721285 236.44177192 -2.99924464 238.90800055 -3.96484375 241.37890625 C-6.27051555 247.21704126 -8.80278896 252.72112351 -12 258.12890625 C-13.60245817 261.12725571 -14.77033761 264.28379877 -16 267.44921875 C-18.28121598 273.26810171 -20.81690032 278.74499156 -24 284.12890625 C-25.60245817 287.12725571 -26.77033761 290.28379877 -28 293.44921875 C-30.28121598 299.26810171 -32.81690032 304.74499156 -36 310.12890625 C-37.60245817 313.12725571 -38.77033761 316.28379877 -40 319.44921875 C-42.28121598 325.26810171 -44.81690032 330.74499156 -48 336.12890625 C-49.60245817 339.12725571 -50.77033761 342.28379877 -52 345.44921875 C-54.28121598 351.26810171 -56.81690032 356.74499156 -60 362.12890625 C-61.60245817 365.12725571 -62.77033761 368.28379877 -64 371.44921875 C-66.28121598 377.26810171 -68.81690032 382.74499156 -72 388.12890625 C-73.60245817 391.12725571 -74.77033761 394.28379877 -76 397.44921875 C-78.28121598 403.26810171 -80.81690032 408.74499156 -84 414.12890625 C-85.60245817 417.12725571 -86.77033761 420.28379877 -88 423.44921875 C-90.28121598 429.26810171 -92.81690032 434.74499156 -96 440.12890625 C-97.60245817 443.12725571 -98.77033761 446.28379877 -100 449.44921875 C-102.28121598 455.26810171 -104.81690032 460.74499156 -108 466.12890625 C-109.60245817 469.12725571 -110.77033761 472.28379877 -112 475.44921875 C-114.28121598 481.26810171 -116.81690032 486.74499156 -120 492.12890625 C-121.60245817 495.12725571 -122.77033761 498.28379877 -124 501.44921875 C-126.28121598 507.26810171 -128.81690032 512.74499156 -132 518.12890625 C-133.60245817 521.12725571 -134.77033761 524.28379877 -136 527.44921875 C-138.28121598 533.26810171 -140.81690032 538.74499156 -144 544.12890625 C-145.60245817 547.12725571 -146.77033761 550.28379877 -148 553.44921875 C-150.28121598 559.26810171 -152.81690032 564.74499156 -156 570.12890625 C-157.60245817 573.12725571 -158.77033761 576.28379877 -160 579.44921875 C-162.04600717 584.66813548 -164.22641388 589.78316476 -167.0625 594.625 C-168.45300041 597.047162 -169.53548792 599.19316785 -170.5625 601.75 C-172 605 -172 605 -173.5625 606.43359375 C-175.90179725 608.98266494 -175.47236637 611.41323811 -175.34375 614.73046875 C-174.46715092 620.51801494 -169.96208756 624.10167139 -165.96875 627.9765625 C-162.92562599 631.10421773 -160.25460329 634.51344839 -157.51953125 637.91015625 C-154.73572763 641.32409217 -151.87784713 644.66543821 -149 648 C-144.69987717 652.98905926 -140.49513496 658.04222505 -136.34375 663.15625 C-133.60697595 666.47686918 -130.80883305 669.74034484 -128 673 C-121.40899187 680.65420793 -115.01441863 688.45097793 -108.75 696.375 C-106.74179116 698.89712055 -104.7823939 701.2176061 -102.5 703.5 C-99.50746996 706.49253004 -96.98593027 709.7421318 -94.3671875 713.0625 C-91.66582431 716.41468667 -88.87552026 719.6790369 -86.0625 722.9375 C-82.48631964 727.0825296 -78.95002056 731.24852276 -75.5 735.5 C-72.06792143 739.72792288 -68.55453161 743.87531796 -65 748 C-60.7062354 752.98248875 -56.50466379 758.02623755 -52.36328125 763.13671875 C-49.0336591 767.17078988 -45.60827734 771.12153659 -42.16015625 775.0546875 C-39.13253491 778.54373776 -36.55664511 782.14336585 -34 786 C-32.44011814 787.72672908 -32.44011814 787.72672908 -30.8125 789.1875 C-27.02101939 792.86628267 -23.75774089 796.87471808 -20.4453125 800.984375 C-17.87835037 804.15002159 -15.26267347 807.26834465 -12.625 810.375 C-12.16528809 810.91705078 -11.70557617 811.45910156 -11.23193359 812.01757812 C-9.82205029 813.67903366 -8.41119381 815.33965749 -7 817 C-1.80780978 823.10888035 3.38123581 829.21510641 8.4375 835.4375 C12.53662447 840.47972014 16.75648241 845.41079406 21.01538086 850.31811523 C27.01756107 857.26243487 27.01756107 857.26243487 26.9375 860.625 C25.89505687 864.37779528 24.28108798 867.2333953 22.328125 870.578125 C20.56790336 873.78794094 19.28141338 877.10914003 17.96484375 880.51953125 C15.70888242 886.3192699 13.16886489 891.76906837 10 897.12890625 C8.39754183 900.12725571 7.22966239 903.28379877 6 906.44921875 C3.71996375 912.26509246 1.18711165 917.74085246 -1.99609375 923.12109375 C-3.6178509 926.15636686 -4.8105457 929.3487031 -6.05078125 932.5546875 C-7.2872614 935.7400232 -8.63771479 938.86674402 -10 942 C-10.99 942 -11.98 942 -13 942 C-14.40234375 940.5234375 -14.40234375 940.5234375 -15.9375 938.375 C-19.09092012 934.1348833 -22.41659 930.11526413 -25.875 926.125 C-30.24177086 921.06962816 -34.51736267 915.95430864 -38.73046875 910.76953125 C-43.08505794 905.45558334 -47.55078435 900.23473234 -52 895 C-57.19219022 888.89111965 -62.38123581 882.78489359 -67.4375 876.5625 C-70.91072357 872.29255131 -74.46797164 868.10500424 -78.0625 863.9375 C-81.42936351 860.03395089 -84.74776752 856.11359484 -87.9375 852.0625 C-91.85266961 847.10328516 -95.9968427 842.35947796 -100.14990234 837.60009766 C-104.0904112 833.07530252 -107.91516316 828.47173431 -111.69140625 823.80859375 C-114.41344091 820.4970152 -117.20139731 817.24686941 -120 814 C-124.29977994 809.01063907 -128.50485562 803.95778656 -132.65625 798.84375 C-135.39302049 795.52313514 -138.1910295 792.25953218 -141 789 C-145.29972713 784.01059233 -149.50485409 778.95778844 -153.65625 773.84375 C-156.39302049 770.52313514 -159.1910295 767.25953218 -162 764 C-166.29972713 759.01059233 -170.50485409 753.95778844 -174.65625 748.84375 C-177.39302049 745.52313514 -180.1910295 742.25953218 -183 739 C-187.29972713 734.01059233 -191.50485409 728.95778844 -195.65625 723.84375 C-198.39302049 720.52313514 -201.1910295 717.25953218 -204 714 C-208.30279222 709.00703559 -212.51165635 703.95133342 -216.6640625 698.83203125 C-219.35196522 695.57328631 -222.11030298 692.38101973 -224.875 689.1875 C-228.93240857 684.49720781 -232.83270427 679.71930481 -236.625 674.8125 C-240.72100657 669.51755512 -245.05536433 664.54484287 -249.609375 659.6328125 C-252.74645669 656.17792188 -255.6642038 652.56848684 -258.59375 648.9375 C-260.80530112 646.23768435 -263.06231238 643.58934423 -265.34741211 640.95214844 C-267.91691765 637.98389112 -270.46127628 634.99459608 -273 632 C-273.53608887 631.37029297 -274.07217773 630.74058594 -274.62451172 630.09179688 C-276.20473994 628.22083712 -277.76132135 626.33257441 -279.3125 624.4375 C-279.79895996 623.86604248 -280.28541992 623.29458496 -280.78662109 622.70581055 C-282.82854681 620.17050087 -284.02503201 618.67786689 -283.90234375 615.35546875 C-282.22477172 610.97635214 -282.22477172 610.97635214 -281.25 608.875 C-280.89421875 608.10027344 -280.5384375 607.32554687 -280.171875 606.52734375 C-279.78515625 605.69332031 -279.3984375 604.85929688 -279 604 C-278.16656805 602.14587766 -277.33323717 600.29170988 -276.5 598.4375 C-274.71698768 594.51596678 -272.84243831 590.65789626 -270.89453125 586.81640625 C-269.78984661 584.57326933 -268.8119836 582.28137944 -267.84375 579.9765625 C-265.07346142 573.486905 -262.08514753 567.10865747 -258.89453125 560.81640625 C-257.78984661 558.57326933 -256.8119836 556.28137944 -255.84375 553.9765625 C-253.07346142 547.486905 -250.08514753 541.10865747 -246.89453125 534.81640625 C-245.78984661 532.57326933 -244.8119836 530.28137944 -243.84375 527.9765625 C-241.07346142 521.486905 -238.08514753 515.10865747 -234.89453125 508.81640625 C-233.78984661 506.57326933 -232.8119836 504.28137944 -231.84375 501.9765625 C-229.07346142 495.486905 -226.08514753 489.10865747 -222.89453125 482.81640625 C-221.78984661 480.57326933 -220.8119836 478.28137944 -219.84375 475.9765625 C-217.07346142 469.486905 -214.08514753 463.10865747 -210.89453125 456.81640625 C-209.78984661 454.57326933 -208.8119836 452.28137944 -207.84375 449.9765625 C-205.07346142 443.486905 -202.08514753 437.10865747 -198.89453125 430.81640625 C-197.78746768 428.56843874 -196.80714058 426.27199262 -195.83984375 423.9609375 C-194.81066437 421.55792332 -193.717232 419.18750914 -192.625 416.8125 C-190.79923791 412.82652692 -189.08934196 408.81098992 -187.4375 404.75 C-186.07530552 401.44059335 -184.69010862 398.2724945 -182.875 395.1875 C-180.41022808 390.99738774 -178.65858074 386.63087731 -176.84375 382.13671875 C-173.09021512 372.94742451 -173.09021512 372.94742451 -170.875 369.1875 C-168.41022808 364.99738774 -166.65858074 360.63087731 -164.84375 356.13671875 C-161.09021512 346.94742451 -161.09021512 346.94742451 -158.875 343.1875 C-156.41022808 338.99738774 -154.65858074 334.63087731 -152.84375 330.13671875 C-149.09021512 320.94742451 -149.09021512 320.94742451 -146.875 317.1875 C-144.41022808 312.99738774 -142.65858074 308.63087731 -140.84375 304.13671875 C-137.09021512 294.94742451 -137.09021512 294.94742451 -134.875 291.1875 C-132.41022808 286.99738774 -130.65858074 282.63087731 -128.84375 278.13671875 C-125.09021512 268.94742451 -125.09021512 268.94742451 -122.875 265.1875 C-120.92769802 261.87708663 -119.48935695 258.53722275 -118 255 C-117.3428891 253.66193143 -116.67586711 252.3286933 -116 251 C-114.49775045 248.03518296 -113.13161501 245.04224116 -111.84375 241.9765625 C-109.07346142 235.486905 -106.08514753 229.10865747 -102.89453125 222.81640625 C-101.78984661 220.57326933 -100.8119836 218.28137944 -99.84375 215.9765625 C-97.07346142 209.486905 -94.08514753 203.10865747 -90.89453125 196.81640625 C-89.78984661 194.57326933 -88.8119836 192.28137944 -87.84375 189.9765625 C-85.07346142 183.486905 -82.08514753 177.10865747 -78.89453125 170.81640625 C-77.78984661 168.57326933 -76.8119836 166.28137944 -75.84375 163.9765625 C-73.07346142 157.486905 -70.08514753 151.10865747 -66.89453125 144.81640625 C-65.78984661 142.57326933 -64.8119836 140.28137944 -63.84375 137.9765625 C-61.07346142 131.486905 -58.08514753 125.10865747 -54.89453125 118.81640625 C-53.78984661 116.57326933 -52.8119836 114.28137944 -51.84375 111.9765625 C-49.07346142 105.486905 -46.08514753 99.10865747 -42.89453125 92.81640625 C-41.78984661 90.57326933 -40.8119836 88.28137944 -39.84375 85.9765625 C-37.07346142 79.486905 -34.08514753 73.10865747 -30.89453125 66.81640625 C-29.78984661 64.57326933 -28.8119836 62.28137944 -27.84375 59.9765625 C-25.07346142 53.486905 -22.08514753 47.10865747 -18.89453125 40.81640625 C-17.78984661 38.57326933 -16.8119836 36.28137944 -15.84375 33.9765625 C-13.07633428 27.49363494 -10.09517893 21.1190268 -6.90234375 14.8359375 C-5.48080066 11.94362038 -4.26260845 8.96438506 -3 6 C-2.01462479 3.9927542 -1.01936943 1.99019747 0 0 Z " fill="#FDFDFD" transform="translate(640,105)"/>
<path d="M0 0 C0.66 0 1.32 0 2 0 C3.37491299 1.50787161 4.67364462 3.08539761 5.9375 4.6875 C6.74058594 5.69167969 7.54367187 6.69585938 8.37109375 7.73046875 C9.01280518 8.53363525 9.01280518 8.53363525 9.66748047 9.35302734 C11.89732841 12.10908345 14.20014703 14.80234333 16.5 17.5 C19.85510252 21.44595275 23.17223477 25.41644101 26.4375 29.4375 C29.40608087 33.08704566 32.42656236 36.68315148 35.49755859 40.24633789 C37.03988874 42.03625895 38.57523585 43.83196325 40.109375 45.62890625 C41.91223459 47.74040108 43.7338282 49.82611266 45.578125 51.90234375 C46.31546875 52.75957031 47.0528125 53.61679687 47.8125 54.5 C48.78123047 55.59828125 48.78123047 55.59828125 49.76953125 56.71875 C51.4741214 59.87900603 50.96172928 61.59832791 50 65 C48.94921875 67.203125 48.94921875 67.203125 47.6875 69.25 C45.36512484 73.22740114 43.62140902 77.22842844 41.96484375 81.51953125 C39.70888242 87.3192699 37.16886489 92.76906837 34 98.12890625 C32.39754183 101.12725571 31.22966239 104.28379877 30 107.44921875 C27.71878402 113.26810171 25.18309968 118.74499156 22 124.12890625 C20.39754183 127.12725571 19.22966239 130.28379877 18 133.44921875 C15.71878402 139.26810171 13.18309968 144.74499156 10 150.12890625 C8.39887825 153.12475515 7.23160968 156.27826448 6.00390625 159.44140625 C4.12126458 164.23957859 2.2055683 169.04095151 -0.5 173.4375 C-2.36723715 176.62736347 -3.62140316 179.94112862 -4.96484375 183.37890625 C-7.27051555 189.21704126 -9.80278896 194.72112351 -13 200.12890625 C-14.60245817 203.12725571 -15.77033761 206.28379877 -17 209.44921875 C-19.28121598 215.26810171 -21.81690032 220.74499156 -25 226.12890625 C-26.60245817 229.12725571 -27.77033761 232.28379877 -29 235.44921875 C-31.28121598 241.26810171 -33.81690032 246.74499156 -37 252.12890625 C-38.60379438 255.1297559 -39.77228936 258.28933178 -41.00390625 261.45703125 C-43.80914085 268.61863017 -47.15796628 275.33942515 -51 282 C-51.66 282 -52.32 282 -53 282 C-54.3046875 280.5234375 -54.3046875 280.5234375 -55.875 278.375 C-59.06248057 274.15158825 -62.41431662 270.1235401 -65.875 266.125 C-70.2389998 261.07205425 -74.51354532 255.96071544 -78.72265625 250.77734375 C-80.8206291 248.2187525 -82.9447202 245.68644079 -85.08642578 243.16455078 C-86.48475282 241.51795428 -87.87715517 239.86647287 -89.26953125 238.21484375 C-91.05497538 236.10095428 -92.86574188 234.01371143 -94.69921875 231.94140625 C-95.52035156 230.99136719 -96.34148438 230.04132813 -97.1875 229.0625 C-97.92355469 228.22847656 -98.65960937 227.39445313 -99.41796875 226.53515625 C-101.38406223 223.38455214 -101.4727522 221.65659353 -101 218 C-100.01171875 215.69140625 -100.01171875 215.69140625 -98.6875 213.5625 C-96.451316 209.79794374 -94.67759461 206.05418697 -93 202 C-90.42836731 196.2029297 -87.76248794 190.47233677 -84.89453125 184.81640625 C-83.78984661 182.57326933 -82.8119836 180.28137944 -81.84375 177.9765625 C-79.07346142 171.486905 -76.08514753 165.10865747 -72.89453125 158.81640625 C-71.78984661 156.57326933 -70.8119836 154.28137944 -69.84375 151.9765625 C-67.07346142 145.486905 -64.08514753 139.10865747 -60.89453125 132.81640625 C-59.78801836 130.56955693 -58.80852112 128.27396116 -57.83984375 125.96484375 C-56.39462751 122.58370994 -54.85193942 119.24681333 -53.32421875 115.90234375 C-52.44713225 113.97999783 -51.57466951 112.05553502 -50.70703125 110.12890625 C-48.53196775 105.30361154 -46.28807293 100.53673745 -43.89453125 95.81640625 C-42.78984661 93.57326933 -41.8119836 91.28137944 -40.84375 88.9765625 C-38.07346142 82.486905 -35.08514753 76.10865747 -31.89453125 69.81640625 C-30.78984661 67.57326933 -29.8119836 65.28137944 -28.84375 62.9765625 C-26.07346142 56.486905 -23.08514753 50.10865747 -19.89453125 43.81640625 C-18.78984661 41.57326933 -17.8119836 39.28137944 -16.84375 36.9765625 C-14.07461636 30.48961056 -11.08787139 24.11378238 -7.8984375 17.82421875 C-6.47557465 14.93518853 -5.24942295 11.96737952 -4 9 C-2.67603902 5.99581217 -1.3390203 2.99750229 0 0 Z " fill="#FCFCFD" transform="translate(664,574)"/>
<path d="M0 0 C4.30756559 1.57842238 6.73113596 4.88515613 9.5625 8.3125 C10.08626221 8.93552002 10.61002441 9.55854004 11.1496582 10.20043945 C12.23750005 11.49502196 13.32268387 12.79184241 14.40527344 14.09082031 C15.89872764 15.87875844 17.40316901 17.65647894 18.9140625 19.4296875 C23.88084229 25.26040593 28.78301554 31.13510858 33.58203125 37.10546875 C35.42968547 39.31728099 37.30607717 41.43805549 39.26171875 43.55078125 C39.81867432 44.16445557 40.37562988 44.77812988 40.94946289 45.41040039 C42.0429251 46.61093044 43.15229319 47.79721748 44.27905273 48.96655273 C47.10772719 52.10256255 48.00389374 53.27187126 47.98046875 57.65234375 C47.12554274 60.57135406 46.29037882 62.75682634 44.6875 65.3125 C42.35065484 69.26767758 40.61710976 73.23956509 38.96484375 77.51953125 C36.70888242 83.3192699 34.16886489 88.76906837 31 94.12890625 C29.39754183 97.12725571 28.22966239 100.28379877 27 103.44921875 C24.71878402 109.26810171 22.18309968 114.74499156 19 120.12890625 C17.39754183 123.12725571 16.22966239 126.28379877 15 129.44921875 C12.72416299 135.25438113 10.2040505 140.72909757 7.015625 146.09375 C4.98690599 149.90149953 3.52448139 153.96985505 2 158 C-2.15391102 156.44107302 -4.46912659 153.40276431 -7.1875 150.0625 C-7.9136853 149.18742798 -7.9136853 149.18742798 -8.65454102 148.29467773 C-10.11080672 146.53601022 -11.55709525 144.76963846 -13 143 C-13.75796875 142.071875 -14.5159375 141.14375 -15.296875 140.1875 C-16.73924504 138.41875426 -18.18063149 136.64920602 -19.62109375 134.87890625 C-22.87323933 130.94322268 -26.2063279 127.07959099 -29.54077148 123.21362305 C-33.47093041 118.64661821 -37.29135753 114.00433096 -41.0625 109.3046875 C-42.94716625 106.93813306 -42.94716625 106.93813306 -45.3125 105.0078125 C-47 103 -47 103 -46.9609375 100.6796875 C-45.76816213 97.35349278 -44.26406185 94.2473451 -42.625 91.125 C-40.22051651 86.48923734 -38.02317477 81.81681884 -36 77 C-33.42810916 71.20316768 -30.76248141 65.47232389 -27.89453125 59.81640625 C-26.78984661 57.57326933 -25.8119836 55.28137944 -24.84375 52.9765625 C-22.07346142 46.486905 -19.08514753 40.10865747 -15.89453125 33.81640625 C-14.78984661 31.57326933 -13.8119836 29.28137944 -12.84375 26.9765625 C-10.05967765 20.45461523 -7.06126376 14.04091916 -3.84375 7.72265625 C-2.7698926 5.5301974 -1.89437329 3.27033219 -1 1 C-0.67 0.67 -0.34 0.34 0 0 Z " fill="#FBFBFC" transform="translate(679,778)"/>
<path d="M0 0 C1.85253906 0.12475586 1.85253906 0.12475586 4 1 C5.28027344 3.59204102 5.28027344 3.59204102 6.359375 7.00390625 C6.71483398 8.09775635 7.07029297 9.19160645 7.43652344 10.31860352 C8.08669434 12.41933228 8.08669434 12.41933228 8.75 14.5625 C10.1525 18.996875 11.555 23.43125 13 28 C27.85 28.495 27.85 28.495 43 29 C43 30.32 43 31.64 43 33 C40.98046875 34.640625 40.98046875 34.640625 38.1875 36.25 C32.19331525 39.8387262 26.6002693 43.82958669 21 48 C21.68694265 54.53030292 23.68608046 60.26710974 25.91601562 66.41601562 C27.43913603 70.77147616 28.35257709 74.31147492 28 79 C24.30002177 78.44882805 21.91808015 77.54253301 18.8984375 75.34765625 C18.16109375 74.81849609 17.42375 74.28933594 16.6640625 73.74414062 C15.90867187 73.18919922 15.15328125 72.63425781 14.375 72.0625 C12.86204911 70.96995522 11.34903097 69.87750356 9.8359375 68.78515625 C9.17126465 68.29926025 8.5065918 67.81336426 7.82177734 67.31274414 C4.55365116 64.6946895 4.55365116 64.6946895 0.58032227 64.19335938 C-2.20421066 65.06383878 -3.96737722 66.14751321 -6.28515625 67.90625 C-7.06310547 68.48503906 -7.84105469 69.06382812 -8.64257812 69.66015625 C-9.84043945 70.57087891 -9.84043945 70.57087891 -11.0625 71.5 C-12.65325965 72.70361091 -14.24816649 73.9017651 -15.84765625 75.09375 C-16.54898682 75.62677734 -17.25031738 76.15980469 -17.97290039 76.70898438 C-20.01106158 78.00704488 -21.63825892 78.56800247 -24 79 C-23.48151476 72.4237695 -22.17169522 66.81439465 -19.9375 60.625 C-19.38009726 59.056109 -18.82653714 57.48584601 -18.27734375 55.9140625 C-18.03234131 55.2329541 -17.78733887 54.5518457 -17.53491211 53.85009766 C-16.86112487 51.84065241 -16.86112487 51.84065241 -17 49 C-19.11190991 47.28163233 -21.18506806 45.76224868 -23.4375 44.25 C-24.72087874 43.35926279 -26.0034296 42.4673316 -27.28515625 41.57421875 C-28.23285889 40.91945557 -28.23285889 40.91945557 -29.19970703 40.25146484 C-31.62533435 38.56530189 -34.01218215 36.83555851 -36.375 35.0625 C-37.08398438 34.53785156 -37.79296875 34.01320313 -38.5234375 33.47265625 C-39.01070312 32.98667969 -39.49796875 32.50070312 -40 32 C-40 31.01 -40 30.02 -40 29 C-29.77 29 -19.54 29 -9 29 C-8.01 25.37 -7.02 21.74 -6 18 C-4.96172465 14.75886309 -3.90947195 11.53299297 -2.8125 8.3125 C-2.53986328 7.50361328 -2.26722656 6.69472656 -1.98632812 5.86132812 C-1.32704048 3.9065981 -0.6639433 1.95315359 0 0 Z " fill="#E4A312" transform="translate(737,277)"/>
<path d="M0 0 C2.125 0.375 2.125 0.375 4 1 C-1.75 6 -1.75 6 -4 6 C-2.84826645 3.53199953 -1.95216435 1.95216435 0 0 Z " fill="#424279" transform="translate(630,65)"/>
</svg>
